<svg xmlns="http://www.w3.org/2000/svg" width="140" height="98" viewBox="0 0 140 98" fill="none">
    <path fill-rule="evenodd" clip-rule="evenodd" d="M91.5146 87.3348C102.718 89.6052 114.313 91.107 124.389 96.8594C124.99 97.1998 125.754 96.9953 126.1 96.3964C126.441 95.7967 126.235 95.0339 125.635 94.6885C115.323 88.8028 103.476 87.2053 92.0113 84.8835C91.334 84.7428 90.6705 85.1836 90.535 85.8604C90.3945 86.5364 90.8373 87.1941 91.5146 87.3348Z" fill="#F47715"/>
    <path fill-rule="evenodd" clip-rule="evenodd" d="M93.4003 70.8495C97.48 68.2518 101.737 66.5191 106.576 66.1454C107.268 66.0925 107.782 65.4906 107.731 64.803C107.675 64.1145 107.07 63.599 106.383 63.6528C101.121 64.0585 96.4902 65.9183 92.055 68.7409C91.4702 69.1113 91.2971 69.8846 91.6719 70.4672C92.0419 71.0485 92.8203 71.2209 93.4003 70.8495Z" fill="#F47715"/>
    <path fill-rule="evenodd" clip-rule="evenodd" d="M89.8938 33.9498C92.4797 28.7335 96.4115 24.9921 101.818 22.7464C102.455 22.4813 102.758 21.7489 102.49 21.1116C102.227 20.4751 101.492 20.1727 100.854 20.4379C94.8706 22.9248 90.5119 27.0637 87.6485 32.8392C87.3403 33.4569 87.5986 34.2088 88.2159 34.5146C88.8381 34.8217 89.5905 34.5684 89.8938 33.9498Z" fill="#F47715"/>
    <path fill-rule="evenodd" clip-rule="evenodd" d="M35.7989 16.6336C34.6422 17.5876 33.5686 18.6463 32.6093 19.806C32.1817 20.3222 31.3927 21.4406 31.118 22.4711C30.8212 23.5683 31.0339 24.5762 31.9226 25.2451C33.1032 26.1324 34.1513 26.2481 35.0211 25.9928C35.8584 25.748 36.5935 25.105 37.152 24.1671C38.2186 22.3743 38.632 19.4181 38.55 17.6746C39.758 16.8044 41.0473 16.0497 42.3966 15.4149C52.4474 10.6871 65.1304 15.3429 73.5305 26.5754C76.47 30.5079 76.9332 37.7517 76.4851 45.3989C75.7888 57.306 72.6895 70.1925 71.9028 73.9895C71.7107 74.9275 71.7001 75.5026 71.7295 75.6231C71.8637 76.2138 72.2478 76.4293 72.5243 76.5343C72.9255 76.6818 73.27 76.6618 73.5608 76.5712C73.9545 76.4462 74.3097 76.1659 74.5391 75.677C74.6635 75.4065 74.7534 75.0151 74.8183 74.5924C74.8603 74.2987 74.8578 73.9691 74.9542 73.7704C75.5771 72.4986 76.2734 71.2723 76.9615 70.0349C79.2633 65.8733 81.9595 62.0692 84.872 58.3087C94.1248 46.3594 103.283 33.6238 116.398 25.5977C116.986 25.2375 117.174 24.4674 116.811 23.8786C116.452 23.2907 115.681 23.1059 115.088 23.4657C101.71 31.6499 92.3269 44.5928 82.8896 56.7785C80.4128 59.9776 78.0881 63.2087 76.0206 66.6531C77.3253 60.142 78.879 51.0842 79.103 42.8655C79.3028 35.5561 78.3937 28.9034 75.5364 25.0805C66.3347 12.7756 52.3343 7.97304 41.3279 13.1532C40.1506 13.7079 39.0095 14.3452 37.9251 15.0636C34.4481 4.93513 24.1537 -0.706195 13.6918 1.98341C13.0201 2.15507 12.6189 2.83753 12.7903 3.5054C12.9666 4.17416 13.6481 4.57668 14.3198 4.40501C23.7473 1.98157 33.0076 7.2852 35.7989 16.6336ZM35.9656 19.8473C35.466 20.3395 34.9922 20.8578 34.5396 21.4C34.2995 21.6916 33.8731 22.2583 33.6316 22.8442C33.5766 22.9817 33.532 23.2043 33.5136 23.3077C33.8243 23.5356 34.0762 23.6637 34.3126 23.5935C34.6077 23.5078 34.8019 23.2172 34.9977 22.8888C35.4901 22.0652 35.8067 20.9136 35.9656 19.8473Z" fill="#F47715"/>
</svg>

